<svg xmlns="http://www.w3.org/2000/svg" version="1" width="200" height="200" viewBox="0 0 200 200" preserveAspectRatio="xMidYMid meet">
<g transform="translate(0.000000,200.000000) scale(0.100000,-0.100000)" fill="#7F1734" stroke="none"><path d="M0 1000l0-1000 1000 0 1000 0 0 1000 0 1000-1000 0-1000 0 0-1000zm430 255l0-165 175 0 175 0 0 165 0 165 95 0 95 0 0-430 0-430-95 0-95 0 0 185 0 185-175 0-175 0 0-185 0-185-95 0-95 0 0 430 0 430 95 0 95 0 0-165zm894-117c49-156 92-292 96-303 8-21 5-27 130 363l71 222 95 0c69 0 94-3 94-13 0-7-62-199-138-427l-139-415-108 0-109 0-138 425c-76 234-138 426-138 428 0 1 44 2 98 2l98 0 88-282z"/></g></svg>
